<svg width="543" height="542" viewBox="0 0 543 542" fill="none" xmlns="http://www.w3.org/2000/svg">
<path d="M147.001 64.8696C147.001 64.8696 74.886 64.5685 44.8998 89.3229C24.2404 106.378 19.3966 122.152 10.1574 146.405C-11.2435 202.583 20.5118 302.279 20.5118 302.279C20.5118 302.279 11.3438 453.263 60.1093 490.656C108.875 528.048 177.65 528.761 177.65 528.761C177.65 528.761 194.579 534.954 203.362 537.097C250.814 548.675 321.21 514.152 321.21 514.152C321.21 514.152 523.553 445.938 532.247 394.08C540.94 342.222 532.352 328.647 532.352 328.647C532.352 328.647 539.331 304.721 539.771 285.728C541.962 191.234 352.542 96.9725 352.542 96.9725C352.542 96.9725 286.539 5.0714 255.567 2.94407C224.595 0.816743 147.001 64.8696 147.001 64.8696Z" stroke="#FE96C6" stroke-width="5"/>
</svg>
