<svg width="538" height="553" viewBox="0 0 538 553" fill="none" xmlns="http://www.w3.org/2000/svg">
<path d="M305.268 34.6625C305.268 34.6625 240.109 -2.67764 200.226 4.32925C172.749 9.15673 160.254 20.9535 139.42 38.1703C91.1609 78.0503 68.6769 184.668 68.6769 184.668C68.6769 184.668 -17.2336 316.701 7.71343 375.633C32.6604 434.565 94.5828 470.562 94.5828 470.562C94.5828 470.562 106.732 484.872 113.585 491.328C150.611 526.205 232.115 531.121 232.115 531.121C232.115 531.121 423.438 573.345 457.967 530.847C492.496 488.348 491.696 471.638 491.696 471.638C491.696 471.638 510.315 453.556 520.476 436.58C571.03 352.123 474.925 169.388 474.925 169.388C474.925 169.388 462.384 52.2272 435.426 34.3806C408.468 16.534 305.268 34.6625 305.268 34.6625Z" stroke="#6EB245" stroke-width="5"/>
</svg>
