<svg width="557" height="513" viewBox="0 0 557 513" fill="none" xmlns="http://www.w3.org/2000/svg">
<path d="M95.7203 97.0846C95.7203 97.0846 31.7731 122.352 13.9923 154.884C1.74199 177.297 3.03913 192.976 3.44745 217.718C4.39325 275.028 67.8054 352.042 67.8054 352.042C67.8054 352.042 113.149 488.949 169.559 504.785C225.97 520.62 287.106 496.9 287.106 496.9C287.106 496.9 304.285 496.388 312.82 495.175C358.927 488.624 409.023 433.135 409.023 433.135C409.023 433.135 563.997 301.103 553.331 252.117C542.666 203.131 530.256 194.153 530.256 194.153C530.256 194.153 527.963 170.502 521.628 153.532C490.109 69.1043 289.046 52.7268 289.046 52.7268C289.046 52.7268 198.076 -5.25993 169.904 3.8233C141.732 12.9065 95.7203 97.0846 95.7203 97.0846Z" stroke="#FE96C6" stroke-width="5"/>
</svg>
