<svg width="12" height="12" viewBox="0 0 12 12" fill="none" xmlns="http://www.w3.org/2000/svg">
<path d="M0.75 6.75004H9.1275L5.4675 10.41C5.175 10.7025 5.175 11.1825 5.4675 11.475C5.76 11.7675 6.2325 11.7675 6.525 11.475L11.4675 6.53255C11.537 6.46316 11.5922 6.38074 11.6298 6.29001C11.6675 6.19928 11.6868 6.10202 11.6868 6.0038C11.6868 5.90557 11.6675 5.80831 11.6298 5.71758C11.5922 5.62685 11.537 5.54443 11.4675 5.47505L6.5325 0.525045C6.46306 0.455609 6.38063 0.400529 6.28991 0.36295C6.19918 0.325372 6.10195 0.30603 6.00375 0.30603C5.90555 0.30603 5.80832 0.325372 5.71759 0.36295C5.62687 0.400529 5.54444 0.455609 5.475 0.525045C5.40556 0.594482 5.35048 0.676915 5.3129 0.767638C5.27533 0.858361 5.25598 0.955598 5.25598 1.0538C5.25598 1.15199 5.27533 1.24923 5.3129 1.33995C5.35048 1.43068 5.40556 1.51311 5.475 1.58255L9.1275 5.25005H0.75C0.3375 5.25005 0 5.58755 0 6.00005C0 6.41255 0.3375 6.75004 0.75 6.75004Z" fill="#21A4C4"/>
</svg>
