<svg width="12" height="12" viewBox="0 0 12 12" fill="none" xmlns="http://www.w3.org/2000/svg">
<path d="M0.75 6.74992H9.1275L5.4675 10.4099C5.175 10.7024 5.175 11.1824 5.4675 11.4749C5.76 11.7674 6.2325 11.7674 6.525 11.4749L11.4675 6.53242C11.537 6.46304 11.5922 6.38062 11.6298 6.28989C11.6675 6.19916 11.6868 6.1019 11.6868 6.00367C11.6868 5.90545 11.6675 5.80819 11.6298 5.71745C11.5922 5.62673 11.537 5.54431 11.4675 5.47492L6.5325 0.524923C6.46306 0.455487 6.38063 0.400407 6.28991 0.362828C6.19918 0.32525 6.10195 0.305908 6.00375 0.305908C5.90555 0.305908 5.80832 0.32525 5.71759 0.362828C5.62687 0.400407 5.54444 0.455487 5.475 0.524923C5.40556 0.59436 5.35048 0.676793 5.3129 0.767516C5.27533 0.858239 5.25598 0.955476 5.25598 1.05367C5.25598 1.15187 5.27533 1.24911 5.3129 1.33983C5.35048 1.43055 5.40556 1.51299 5.475 1.58242L9.1275 5.24992H0.75C0.3375 5.24992 0 5.58742 0 5.99992C0 6.41242 0.3375 6.74992 0.75 6.74992Z" fill="#483D3F"/>
</svg>
