<svg width="24" height="24" viewBox="0 0 24 24" fill="none" xmlns="http://www.w3.org/2000/svg">
<path d="M23.0405 0H0.960488C0.429488 0 0.000488281 0.429 0.000488281 0.96V23.04C0.000488281 23.571 0.429488 24 0.960488 24H23.0405C23.5715 24 24.0005 23.571 24.0005 23.04V0.96C24.0005 0.429 23.5715 0 23.0405 0ZM7.11949 20.451H3.55849V8.997H7.11949V20.451ZM5.34049 7.431C4.93227 7.431 4.53321 7.30995 4.19379 7.08315C3.85437 6.85636 3.58982 6.534 3.4336 6.15686C3.27738 5.77971 3.23651 5.36471 3.31615 4.96433C3.39579 4.56396 3.59236 4.19619 3.88102 3.90753C4.16968 3.61888 4.53745 3.4223 4.93782 3.34266C5.3382 3.26302 5.7532 3.30389 6.13035 3.46011C6.50749 3.61633 6.82985 3.88088 7.05664 4.2203C7.28344 4.55973 7.40449 4.95878 7.40449 5.367C7.40149 6.507 6.47749 7.431 5.34049 7.431ZM20.4515 20.451H16.8935V14.88C16.8935 13.551 16.8695 11.844 15.0425 11.844C13.1915 11.844 12.9065 13.29 12.9065 14.784V20.451H9.35149V8.997H12.7655V10.563H12.8135C13.2875 9.663 14.4485 8.712 16.1825 8.712C19.7885 8.712 20.4515 11.085 20.4515 14.169V20.451Z" fill="#483D3F"/>
</svg>
