<svg width="158" height="97" viewBox="0 0 158 97" fill="none" xmlns="http://www.w3.org/2000/svg">
<path d="M2.75997 14.0825C3.44182 8.71126 7.72503 4.56967 13.1108 4.01388C27.2283 2.55702 54.8112 0 74.5 0C97.1974 0 129.198 2.67235 144.768 4.10968C150.218 4.61272 154.568 8.77967 155.256 14.2087C156.429 23.4665 158 37.8536 158 48.5C158 59.1692 156.422 73.5954 155.248 82.8509C154.563 88.2527 150.24 92.4081 144.821 92.9362C129.966 94.3837 100.187 97 79 97C57.8132 97 28.034 94.3837 13.1792 92.9362C7.75973 92.4081 3.43655 88.2527 2.75152 82.8509C1.5778 73.5954 0 59.1692 0 48.5C0 37.8051 1.58539 23.3353 2.75997 14.0825Z" fill="#483D3F" fill-opacity="0.47"/>
</svg>
